<?xml version="1.0" encoding="UTF-8" standalone="no"?>
<svg
   version="1.2"
   viewBox="0 0 71 71"
   width="71"
   height="71"
   id="svg497"
   sodipodi:docname="menu.svg"
   inkscape:version="1.4.3 (0d15f75042, 2025-12-25)"
   xmlns:inkscape="http://www.inkscape.org/namespaces/inkscape"
   xmlns:sodipodi="http://sodipodi.sourceforge.net/DTD/sodipodi-0.dtd"
   xmlns="http://www.w3.org/2000/svg"
   xmlns:svg="http://www.w3.org/2000/svg"
   xmlns:rdf="http://www.w3.org/1999/02/22-rdf-syntax-ns#"
   xmlns:cc="http://creativecommons.org/ns#"
   xmlns:dc="http://purl.org/dc/elements/1.1/">
  <defs
     id="defs497" />
  <sodipodi:namedview
     id="namedview497"
     pagecolor="#000000"
     bordercolor="#000000"
     borderopacity="0.25"
     inkscape:showpageshadow="2"
     inkscape:pageopacity="0.0"
     inkscape:pagecheckerboard="0"
     inkscape:deskcolor="#d1d1d1"
     inkscape:zoom="6.915493"
     inkscape:cx="35.572301"
     inkscape:cy="35.5"
     inkscape:window-width="1299"
     inkscape:window-height="699"
     inkscape:window-x="0"
     inkscape:window-y="0"
     inkscape:window-maximized="1"
     inkscape:current-layer="g56">
    <inkscape:page
       x="0"
       y="0"
       width="71"
       height="71"
       id="page2"
       margin="0"
       bleed="0" />
  </sodipodi:namedview>
  <title
     id="title1">vecteezy_cool-and-minimalist-ui-ux-vector-icon-pack-a-great-choice_24353151</title>
  <style
     id="style1">
		.s0 { fill: #11131e } 
		.s1 { fill: #0c75e8 } 
		.s2 { fill: #5a5d6b } 
		.s3 { fill: #ffffff } 
	</style>
  <g
     id="Layer 1"
     transform="translate(-1327,-680.5)">
    <g
       id="g497"
       transform="translate(0,0.43380855)">
      <g
         id="g56"
         transform="translate(0,-0.14460285)">
        <path
           id="path55"
           class="s3"
           d="m 1373.1,712.81935 h -21.3 c -1.9,0 -3.5,1.6 -3.5,3.6 0,2 1.6,3.5 3.5,3.5 h 21.3 c 2,0 3.6,-1.5 3.6,-3.5 0,-2 -1.6,-3.6 -3.6,-3.6 z"
           style="fill:#ff7f00;fill-opacity:1" />
        <path
           id="path56"
           class="s3"
           d="m 1373.1,725.11059 h -21.3 c -1.9,0 -3.5,1.6 -3.5,3.6 0,2 1.6,3.5 3.5,3.5 h 21.3 c 2,0 3.6,-1.5 3.6,-3.5 0,-2 -1.6,-3.6 -3.6,-3.6 z"
           style="fill:#ff7f00;fill-opacity:1" />
        <path
           id="path1"
           class="s3"
           d="m 1373.1,700.52811 h -21.3 c -1.9,0 -3.5,1.6 -3.5,3.6 0,2 1.6,3.5 3.5,3.5 h 21.3 c 2,0 3.6,-1.5 3.6,-3.5 0,-2 -1.6,-3.6 -3.6,-3.6 z"
           style="fill:#ff7f00;fill-opacity:1" />
      </g>
    </g>
  </g>
  <metadata
     id="metadata1">
    <rdf:RDF>
      <cc:Work
         rdf:about="">
        <dc:title>vecteezy_cool-and-minimalist-ui-ux-vector-icon-pack-a-great-choice_24353151</dc:title>
      </cc:Work>
    </rdf:RDF>
  </metadata>
</svg>
